<mxfile host="app.diagrams.net" modified="2024-06-12T15:32:01.893Z" agent="Mozilla/5.0 (X11; Linux x86_64; rv:126.0) Gecko/20100101 Firefox/126.0" etag="cYM33LlbPNUHohqXWfEj" version="24.5.3" type="device">
  <diagram name="Page-1" id="LPA4ojUCi-n8MzSWMMpG">
    <mxGraphModel dx="1768" dy="935" grid="0" gridSize="10" guides="1" tooltips="1" connect="1" arrows="1" fold="1" page="1" pageScale="1" pageWidth="850" pageHeight="1100" math="0" shadow="0">
      <root>
        <mxCell id="0" />
        <mxCell id="1" parent="0" />
        <mxCell id="G_mk2p8V2u7blhUMgMDu-99" value="" style="edgeStyle=orthogonalEdgeStyle;rounded=0;orthogonalLoop=1;jettySize=auto;html=1;dashed=1;dashPattern=1 1;" edge="1" parent="1" source="G_mk2p8V2u7blhUMgMDu-75" target="V4z6lY2kIrRPjXeKWpMC-116">
          <mxGeometry relative="1" as="geometry">
            <Array as="points">
              <mxPoint x="52" y="610" />
              <mxPoint x="107" y="610" />
            </Array>
          </mxGeometry>
        </mxCell>
        <mxCell id="G_mk2p8V2u7blhUMgMDu-101" value="" style="edgeStyle=orthogonalEdgeStyle;rounded=0;orthogonalLoop=1;jettySize=auto;html=1;endArrow=blockThin;endFill=1;startArrow=blockThin;startFill=1;" edge="1" parent="1" source="G_mk2p8V2u7blhUMgMDu-75" target="G_mk2p8V2u7blhUMgMDu-79">
          <mxGeometry relative="1" as="geometry" />
        </mxCell>
        <mxCell id="G_mk2p8V2u7blhUMgMDu-75" value="mobilni telefon" style="sketch=0;pointerEvents=1;shadow=0;dashed=0;html=1;strokeColor=none;fillColor=#434445;aspect=fixed;labelPosition=center;verticalLabelPosition=bottom;verticalAlign=top;align=center;outlineConnect=0;shape=mxgraph.vvd.phone;" vertex="1" parent="1">
          <mxGeometry x="40" y="640" width="23.6" height="40" as="geometry" />
        </mxCell>
        <mxCell id="G_mk2p8V2u7blhUMgMDu-98" value="" style="edgeStyle=orthogonalEdgeStyle;rounded=0;orthogonalLoop=1;jettySize=auto;html=1;dashed=1;dashPattern=1 1;" edge="1" parent="1" source="G_mk2p8V2u7blhUMgMDu-79" target="V4z6lY2kIrRPjXeKWpMC-116">
          <mxGeometry relative="1" as="geometry">
            <Array as="points">
              <mxPoint x="142" y="610" />
              <mxPoint x="107" y="610" />
            </Array>
          </mxGeometry>
        </mxCell>
        <mxCell id="G_mk2p8V2u7blhUMgMDu-79" value="servisi proizvođača" style="sketch=0;outlineConnect=0;fontColor=#232F3E;gradientColor=none;fillColor=#232F3D;strokeColor=none;dashed=0;verticalLabelPosition=bottom;verticalAlign=top;align=center;html=1;fontSize=12;fontStyle=0;aspect=fixed;pointerEvents=1;shape=mxgraph.aws4.traditional_server;whiteSpace=wrap;" vertex="1" parent="1">
          <mxGeometry x="130" y="640" width="23.08" height="40" as="geometry" />
        </mxCell>
        <mxCell id="G_mk2p8V2u7blhUMgMDu-89" value="" style="group" vertex="1" connectable="0" parent="1">
          <mxGeometry x="25" y="30" width="800" height="560" as="geometry" />
        </mxCell>
        <mxCell id="G_mk2p8V2u7blhUMgMDu-45" value="domenske upravljačke jedinice" style="verticalLabelPosition=middle;verticalAlign=middle;html=1;shape=mxgraph.basic.patternFillRect;fillStyle=grid;step=5;fillStrokeWidth=0.2;fillStrokeColor=#dddddd;labelPosition=center;align=center;dashed=1;container=0;whiteSpace=wrap;" vertex="1" parent="G_mk2p8V2u7blhUMgMDu-89">
          <mxGeometry x="150" y="70" width="130" height="60" as="geometry" />
        </mxCell>
        <mxCell id="G_mk2p8V2u7blhUMgMDu-55" value="" style="group;container=0;" vertex="1" connectable="0" parent="G_mk2p8V2u7blhUMgMDu-89">
          <mxGeometry x="164.81927710843374" y="50" width="134.93975903614458" height="83" as="geometry" />
        </mxCell>
        <mxCell id="G_mk2p8V2u7blhUMgMDu-57" value="zonalni upravljači" style="verticalLabelPosition=middle;verticalAlign=middle;html=1;shape=mxgraph.basic.patternFillRect;fillStyle=grid;step=5;fillStrokeWidth=0.2;fillStrokeColor=#dddddd;labelPosition=center;align=center;dashed=1;container=0;" vertex="1" parent="G_mk2p8V2u7blhUMgMDu-89">
          <mxGeometry x="150" y="140" width="130" height="60" as="geometry" />
        </mxCell>
        <mxCell id="G_mk2p8V2u7blhUMgMDu-44" value="&lt;div&gt;središnji&lt;br&gt;&lt;/div&gt;&lt;div&gt;poveznik&lt;/div&gt;" style="verticalLabelPosition=middle;verticalAlign=middle;html=1;shape=mxgraph.basic.patternFillRect;fillStyle=grid;step=5;fillStrokeWidth=0.2;fillStrokeColor=#dddddd;labelPosition=center;align=center;dashed=1;container=0;" vertex="1" parent="G_mk2p8V2u7blhUMgMDu-89">
          <mxGeometry x="12" y="70" width="130" height="60" as="geometry" />
        </mxCell>
        <mxCell id="G_mk2p8V2u7blhUMgMDu-60" value="središnje računalo vozila" style="verticalLabelPosition=middle;verticalAlign=middle;html=1;shape=mxgraph.basic.patternFillRect;fillStyle=grid;step=5;fillStrokeWidth=0.2;fillStrokeColor=#dddddd;labelPosition=center;align=center;dashed=1;whiteSpace=wrap;container=0;" vertex="1" parent="G_mk2p8V2u7blhUMgMDu-89">
          <mxGeometry x="12" y="140" width="130" height="60" as="geometry" />
        </mxCell>
        <mxCell id="G_mk2p8V2u7blhUMgMDu-42" value="E/E sustavi" style="swimlane;whiteSpace=wrap;html=1;container=0;" vertex="1" parent="G_mk2p8V2u7blhUMgMDu-89">
          <mxGeometry width="800" height="560" as="geometry" />
        </mxCell>
        <mxCell id="G_mk2p8V2u7blhUMgMDu-106" value="SPI, UART, LIN" style="shape=partialRectangle;whiteSpace=wrap;html=1;top=0;bottom=0;fillColor=none;" vertex="1" parent="G_mk2p8V2u7blhUMgMDu-42">
          <mxGeometry x="479" y="150" width="270" height="15" as="geometry" />
        </mxCell>
        <mxCell id="G_mk2p8V2u7blhUMgMDu-107" value="Automotive Ethernet, SPI, UART, LIN" style="shape=partialRectangle;whiteSpace=wrap;html=1;top=0;bottom=0;fillColor=none;" vertex="1" parent="G_mk2p8V2u7blhUMgMDu-42">
          <mxGeometry x="479" y="300" width="270" height="15" as="geometry" />
        </mxCell>
        <mxCell id="G_mk2p8V2u7blhUMgMDu-108" value="SPI, UART, LIN" style="shape=partialRectangle;whiteSpace=wrap;html=1;top=0;bottom=0;fillColor=none;" vertex="1" parent="G_mk2p8V2u7blhUMgMDu-42">
          <mxGeometry x="479" y="490" width="270" height="15" as="geometry" />
        </mxCell>
        <mxCell id="V4z6lY2kIrRPjXeKWpMC-82" value="Sustavi s &lt;i&gt;hard real time &lt;/i&gt;zahtjevima (High-speed CAN/FlexRay)" style="swimlane;whiteSpace=wrap;html=1;rounded=1;pointerEvents=0;strokeColor=default;align=center;verticalAlign=middle;fontFamily=Times New Roman;fontSize=12;fontColor=default;fillColor=default;container=0;" parent="G_mk2p8V2u7blhUMgMDu-89" vertex="1">
          <mxGeometry x="299" y="30" width="490" height="330" as="geometry" />
        </mxCell>
        <mxCell id="V4z6lY2kIrRPjXeKWpMC-14" value="Sustavi šasije" style="shape=umlFrame;whiteSpace=wrap;pointerEvents=0;width=159;height=26;fontFamily=Times New Roman;rounded=0;direction=east;html=1;labelBorderColor=none;container=0;" parent="G_mk2p8V2u7blhUMgMDu-89" vertex="1">
          <mxGeometry x="320" y="219" width="450" height="130" as="geometry">
            <mxRectangle width="100" height="26" as="alternateBounds" />
          </mxGeometry>
        </mxCell>
        <mxCell id="V4z6lY2kIrRPjXeKWpMC-62" value="lidar, radar, video, ultrazvučni senzori" style="rounded=1;whiteSpace=wrap;html=1;pointerEvents=0;strokeColor=default;align=center;verticalAlign=middle;fontFamily=Times New Roman;fontSize=12;fontColor=default;fillColor=default;container=0;" parent="G_mk2p8V2u7blhUMgMDu-89" vertex="1">
          <mxGeometry x="480" y="320" width="270" height="20" as="geometry" />
        </mxCell>
        <mxCell id="V4z6lY2kIrRPjXeKWpMC-64" value="&lt;div align=&quot;center&quot;&gt;ADAS&lt;/div&gt;" style="rounded=1;whiteSpace=wrap;html=1;pointerEvents=0;strokeColor=default;align=center;verticalAlign=middle;fontFamily=Times New Roman;fontSize=12;fontColor=default;fillColor=default;container=0;spacingLeft=0;" parent="G_mk2p8V2u7blhUMgMDu-89" vertex="1">
          <mxGeometry x="480" y="229" width="60" height="60" as="geometry" />
        </mxCell>
        <mxCell id="V4z6lY2kIrRPjXeKWpMC-69" value="ACM" style="rounded=1;whiteSpace=wrap;html=1;pointerEvents=0;strokeColor=default;align=center;verticalAlign=middle;fontFamily=Times New Roman;fontSize=12;fontColor=default;fillColor=default;container=0;spacingLeft=0;" parent="G_mk2p8V2u7blhUMgMDu-89" vertex="1">
          <mxGeometry x="550" y="229" width="60" height="30" as="geometry" />
        </mxCell>
        <mxCell id="V4z6lY2kIrRPjXeKWpMC-70" value="EPS" style="rounded=1;whiteSpace=wrap;html=1;pointerEvents=0;strokeColor=default;align=center;verticalAlign=middle;fontFamily=Times New Roman;fontSize=12;fontColor=default;fillColor=default;container=0;spacingLeft=0;" parent="G_mk2p8V2u7blhUMgMDu-89" vertex="1">
          <mxGeometry x="550" y="259" width="60" height="30" as="geometry" />
        </mxCell>
        <mxCell id="V4z6lY2kIrRPjXeKWpMC-63" value="EBCM" style="rounded=1;whiteSpace=wrap;html=1;pointerEvents=0;strokeColor=default;align=left;verticalAlign=middle;fontFamily=Times New Roman;fontSize=12;fontColor=default;fillColor=default;container=0;spacingLeft=6;" parent="G_mk2p8V2u7blhUMgMDu-89" vertex="1">
          <mxGeometry x="620" y="229" width="130" height="60" as="geometry" />
        </mxCell>
        <mxCell id="V4z6lY2kIrRPjXeKWpMC-66" value="AEB" style="verticalLabelPosition=middle;verticalAlign=middle;html=1;shape=mxgraph.basic.patternFillRect;fillStyle=diagGrid;step=5;fillStrokeWidth=0.2;fillStrokeColor=#dddddd;rounded=0;pointerEvents=0;strokeColor=default;align=center;fontFamily=Times New Roman;fontSize=12;fontColor=default;fillColor=default;labelPosition=center;container=0;" parent="G_mk2p8V2u7blhUMgMDu-89" vertex="1">
          <mxGeometry x="670" y="239" width="30" height="20" as="geometry" />
        </mxCell>
        <mxCell id="V4z6lY2kIrRPjXeKWpMC-68" value="ABS" style="verticalLabelPosition=middle;verticalAlign=middle;html=1;shape=mxgraph.basic.patternFillRect;fillStyle=diagGrid;step=5;fillStrokeWidth=0.2;fillStrokeColor=#dddddd;rounded=0;pointerEvents=0;strokeColor=default;align=center;fontFamily=Times New Roman;fontSize=12;fontColor=default;fillColor=default;labelPosition=center;container=0;" parent="G_mk2p8V2u7blhUMgMDu-89" vertex="1">
          <mxGeometry x="670" y="259" width="30" height="20" as="geometry" />
        </mxCell>
        <mxCell id="V4z6lY2kIrRPjXeKWpMC-67" value="ESC" style="verticalLabelPosition=middle;verticalAlign=middle;html=1;shape=mxgraph.basic.patternFillRect;fillStyle=diagGrid;step=5;fillStrokeWidth=0.2;fillStrokeColor=#dddddd;rounded=0;pointerEvents=0;strokeColor=default;align=center;fontFamily=Times New Roman;fontSize=12;fontColor=default;fillColor=default;labelPosition=center;container=0;" parent="G_mk2p8V2u7blhUMgMDu-89" vertex="1">
          <mxGeometry x="710" y="239" width="30" height="20" as="geometry" />
        </mxCell>
        <mxCell id="4GpOcluebxsLAE5gSwX1-5" value="Sustavi pogonskog sklopa" style="shape=umlFrame;whiteSpace=wrap;pointerEvents=0;width=159;height=26;fontFamily=Times New Roman;rounded=0;direction=east;html=1;labelBorderColor=none;strokeColor=default;align=center;verticalAlign=middle;fontSize=12;fontColor=default;fillColor=default;container=0;" parent="G_mk2p8V2u7blhUMgMDu-89" vertex="1">
          <mxGeometry x="319" y="70" width="450" height="130" as="geometry" />
        </mxCell>
        <mxCell id="V4z6lY2kIrRPjXeKWpMC-6" value="ECM" style="rounded=1;whiteSpace=wrap;html=1;pointerEvents=0;strokeColor=default;align=center;verticalAlign=middle;fontFamily=Times New Roman;fontSize=12;fontColor=default;fillColor=default;container=0;" parent="G_mk2p8V2u7blhUMgMDu-89" vertex="1">
          <mxGeometry x="479" y="80" width="60" height="60" as="geometry" />
        </mxCell>
        <mxCell id="V4z6lY2kIrRPjXeKWpMC-7" value="TCM" style="rounded=1;whiteSpace=wrap;html=1;pointerEvents=0;strokeColor=default;align=center;verticalAlign=middle;fontFamily=Times New Roman;fontSize=12;fontColor=default;fillColor=default;container=0;" parent="G_mk2p8V2u7blhUMgMDu-89" vertex="1">
          <mxGeometry x="549" y="80" width="60" height="60" as="geometry" />
        </mxCell>
        <mxCell id="V4z6lY2kIrRPjXeKWpMC-59" value="sutavi senzora i aktuatora" style="rounded=1;whiteSpace=wrap;html=1;pointerEvents=0;strokeColor=default;align=center;verticalAlign=middle;fontFamily=Times New Roman;fontSize=12;fontColor=default;fillColor=default;container=0;" parent="G_mk2p8V2u7blhUMgMDu-89" vertex="1">
          <mxGeometry x="479" y="170" width="270" height="20" as="geometry" />
        </mxCell>
        <mxCell id="V4z6lY2kIrRPjXeKWpMC-49" value="Inverter" style="rounded=1;whiteSpace=wrap;html=1;pointerEvents=0;strokeColor=default;align=center;verticalAlign=middle;fontFamily=Times New Roman;fontSize=12;fontColor=default;fillColor=default;container=0;" parent="G_mk2p8V2u7blhUMgMDu-89" vertex="1">
          <mxGeometry x="689" y="80" width="60" height="60" as="geometry" />
        </mxCell>
        <mxCell id="V4z6lY2kIrRPjXeKWpMC-53" value="🗲" style="text;whiteSpace=wrap;fontFamily=Times New Roman;fontSize=12;fontColor=default;container=0;" parent="G_mk2p8V2u7blhUMgMDu-89" vertex="1">
          <mxGeometry x="729" y="80.5" width="20" height="20" as="geometry" />
        </mxCell>
        <mxCell id="V4z6lY2kIrRPjXeKWpMC-48" value="BMS" style="rounded=1;whiteSpace=wrap;html=1;pointerEvents=0;strokeColor=default;align=center;verticalAlign=middle;fontFamily=Times New Roman;fontSize=12;fontColor=default;fillColor=default;container=0;" parent="G_mk2p8V2u7blhUMgMDu-89" vertex="1">
          <mxGeometry x="619" y="80" width="60" height="60" as="geometry" />
        </mxCell>
        <mxCell id="V4z6lY2kIrRPjXeKWpMC-54" value="🗲" style="text;whiteSpace=wrap;fontFamily=Times New Roman;fontSize=12;fontColor=default;container=0;" parent="G_mk2p8V2u7blhUMgMDu-89" vertex="1">
          <mxGeometry x="659" y="80.5" width="20" height="20" as="geometry" />
        </mxCell>
        <mxCell id="V4z6lY2kIrRPjXeKWpMC-83" value="Sustavi sa &lt;i&gt;soft real time &lt;/i&gt;zahtjevima (Low-speed CAN/FlexRay)" style="swimlane;whiteSpace=wrap;html=1;rounded=1;pointerEvents=0;strokeColor=default;align=center;verticalAlign=middle;fontFamily=Times New Roman;fontSize=12;fontColor=default;fillColor=default;container=0;" parent="G_mk2p8V2u7blhUMgMDu-89" vertex="1">
          <mxGeometry x="299" y="380" width="490" height="170" as="geometry" />
        </mxCell>
        <mxCell id="V4z6lY2kIrRPjXeKWpMC-23" value="Sustavi kabine" style="shape=umlFrame;whiteSpace=wrap;pointerEvents=0;width=159;height=26;fontFamily=Times New Roman;rounded=0;direction=east;html=1;labelBorderColor=none;container=0;" parent="G_mk2p8V2u7blhUMgMDu-89" vertex="1">
          <mxGeometry x="319" y="410" width="450" height="130" as="geometry">
            <mxRectangle width="110" height="30" as="alternateBounds" />
          </mxGeometry>
        </mxCell>
        <mxCell id="V4z6lY2kIrRPjXeKWpMC-73" value="RCDLR, sustavi senzora i aktuatora" style="rounded=1;whiteSpace=wrap;html=1;pointerEvents=0;strokeColor=default;align=center;verticalAlign=middle;fontFamily=Times New Roman;fontSize=12;fontColor=default;fillColor=default;container=0;aspect=fixed;" parent="G_mk2p8V2u7blhUMgMDu-89" vertex="1">
          <mxGeometry x="479" y="510.0022314049587" width="270" height="20" as="geometry" />
        </mxCell>
        <mxCell id="V4z6lY2kIrRPjXeKWpMC-79" value="KES" style="rounded=1;whiteSpace=wrap;html=1;pointerEvents=0;strokeColor=default;align=center;verticalAlign=middle;fontFamily=Times New Roman;fontSize=12;fontColor=default;fillColor=default;container=0;spacingLeft=0;aspect=fixed;" parent="G_mk2p8V2u7blhUMgMDu-89" vertex="1">
          <mxGeometry x="549" y="421.5702479338843" width="60" height="60" as="geometry" />
        </mxCell>
        <mxCell id="V4z6lY2kIrRPjXeKWpMC-80" value="&lt;div&gt;ECU-ovi ambijentalnog osvjetljenja, brisača, prozora, sigurnosnih pojaseva&lt;br&gt;&lt;/div&gt;" style="rounded=1;html=1;pointerEvents=0;strokeColor=default;align=center;verticalAlign=middle;fontFamily=Times New Roman;fontSize=12;fontColor=default;fillColor=default;container=0;spacingLeft=0;horizontal=1;whiteSpace=wrap;aspect=fixed;" parent="G_mk2p8V2u7blhUMgMDu-89" vertex="1">
          <mxGeometry x="619" y="421.5702479338843" width="130" height="60" as="geometry" />
        </mxCell>
        <mxCell id="V4z6lY2kIrRPjXeKWpMC-75" value="HVAC" style="rounded=1;whiteSpace=wrap;html=1;pointerEvents=0;strokeColor=default;align=center;verticalAlign=middle;fontFamily=Times New Roman;fontSize=12;fontColor=default;fillColor=default;container=0;spacingLeft=0;aspect=fixed;" parent="G_mk2p8V2u7blhUMgMDu-89" vertex="1">
          <mxGeometry x="479" y="451.5702479338843" width="60" height="30" as="geometry" />
        </mxCell>
        <mxCell id="V4z6lY2kIrRPjXeKWpMC-78" value="CCM" style="rounded=1;whiteSpace=wrap;html=1;pointerEvents=0;strokeColor=default;align=center;verticalAlign=middle;fontFamily=Times New Roman;fontSize=12;fontColor=default;fillColor=default;container=0;spacingLeft=0;aspect=fixed;" parent="G_mk2p8V2u7blhUMgMDu-89" vertex="1">
          <mxGeometry x="479" y="421.5702479338843" width="60" height="30" as="geometry" />
        </mxCell>
        <mxCell id="V4z6lY2kIrRPjXeKWpMC-101" value="Sustavi informacija, zabave i povezivosti" style="shape=umlFrame;whiteSpace=wrap;pointerEvents=0;width=210;height=20;fontFamily=Times New Roman;rounded=0;direction=east;html=1;labelBorderColor=none;strokeColor=default;align=center;verticalAlign=middle;fontSize=12;fontColor=default;fillColor=default;container=0;" parent="G_mk2p8V2u7blhUMgMDu-89" vertex="1">
          <mxGeometry x="12" y="270" width="270" height="280" as="geometry" />
        </mxCell>
        <mxCell id="V4z6lY2kIrRPjXeKWpMC-103" value="Sustav za infromacije i zabavu" style="rounded=1;whiteSpace=wrap;html=1;pointerEvents=0;strokeColor=default;align=center;verticalAlign=top;fontFamily=Times New Roman;fontSize=12;fontColor=default;fillColor=default;container=0;spacingTop=4;" parent="G_mk2p8V2u7blhUMgMDu-89" vertex="1">
          <mxGeometry x="152" y="300" width="120" height="240" as="geometry" />
        </mxCell>
        <mxCell id="G_mk2p8V2u7blhUMgMDu-2" value="Ploča s instrumentima" style="rounded=1;whiteSpace=wrap;html=1;fontFamily=Times New Roman;container=0;" vertex="1" parent="G_mk2p8V2u7blhUMgMDu-89">
          <mxGeometry x="162" y="355" width="100" height="40" as="geometry" />
        </mxCell>
        <mxCell id="G_mk2p8V2u7blhUMgMDu-6" value="Središnji zaslon" style="rounded=1;whiteSpace=wrap;html=1;fontFamily=Times New Roman;container=0;" vertex="1" parent="G_mk2p8V2u7blhUMgMDu-89">
          <mxGeometry x="162" y="400" width="100" height="40" as="geometry" />
        </mxCell>
        <mxCell id="G_mk2p8V2u7blhUMgMDu-3" value="Središnja jedinica" style="rounded=1;whiteSpace=wrap;html=1;fontFamily=Times New Roman;verticalAlign=top;container=0;" vertex="1" parent="G_mk2p8V2u7blhUMgMDu-89">
          <mxGeometry x="162" y="450" width="100" height="74" as="geometry" />
        </mxCell>
        <mxCell id="G_mk2p8V2u7blhUMgMDu-5" value="OS" style="rounded=1;whiteSpace=wrap;html=1;pointerEvents=0;strokeColor=default;align=center;verticalAlign=middle;fontFamily=Times New Roman;fontSize=12;fontColor=default;fillColor=default;container=0;" vertex="1" parent="G_mk2p8V2u7blhUMgMDu-89">
          <mxGeometry x="169.5" y="500" width="85" height="20" as="geometry" />
        </mxCell>
        <mxCell id="G_mk2p8V2u7blhUMgMDu-76" value="aplikacije" style="rounded=1;whiteSpace=wrap;html=1;pointerEvents=0;strokeColor=default;align=center;verticalAlign=middle;fontFamily=Times New Roman;fontSize=12;fontColor=default;fillColor=default;container=0;" vertex="1" parent="G_mk2p8V2u7blhUMgMDu-89">
          <mxGeometry x="169.5" y="477" width="85" height="20" as="geometry" />
        </mxCell>
        <mxCell id="V4z6lY2kIrRPjXeKWpMC-113" value="TCU" style="rounded=1;whiteSpace=wrap;html=1;pointerEvents=0;strokeColor=default;align=center;verticalAlign=top;fontFamily=Times New Roman;fontSize=12;fontColor=default;fillColor=default;container=0;spacingTop=13;" parent="G_mk2p8V2u7blhUMgMDu-89" vertex="1">
          <mxGeometry x="22" y="300" width="120" height="240" as="geometry" />
        </mxCell>
        <mxCell id="V4z6lY2kIrRPjXeKWpMC-102" value="Bluetooth" style="rounded=1;whiteSpace=wrap;html=1;pointerEvents=0;strokeColor=default;align=center;verticalAlign=middle;fontFamily=Times New Roman;fontSize=12;fontColor=default;fillColor=default;container=0;" parent="G_mk2p8V2u7blhUMgMDu-89" vertex="1">
          <mxGeometry x="32" y="350" width="100" height="20" as="geometry" />
        </mxCell>
        <mxCell id="V4z6lY2kIrRPjXeKWpMC-114" value="Wi-Fi" style="rounded=1;whiteSpace=wrap;html=1;pointerEvents=0;strokeColor=default;align=center;verticalAlign=middle;fontFamily=Times New Roman;fontSize=12;fontColor=default;fillColor=default;container=0;" parent="G_mk2p8V2u7blhUMgMDu-89" vertex="1">
          <mxGeometry x="32" y="370" width="100" height="20" as="geometry" />
        </mxCell>
        <mxCell id="V4z6lY2kIrRPjXeKWpMC-115" value="AM/FM" style="rounded=1;whiteSpace=wrap;html=1;pointerEvents=0;strokeColor=default;align=center;verticalAlign=middle;fontFamily=Times New Roman;fontSize=12;fontColor=default;fillColor=default;container=0;" parent="G_mk2p8V2u7blhUMgMDu-89" vertex="1">
          <mxGeometry x="32" y="460" width="100" height="20" as="geometry" />
        </mxCell>
        <mxCell id="V4z6lY2kIrRPjXeKWpMC-116" value="GPS" style="rounded=1;whiteSpace=wrap;html=1;pointerEvents=0;strokeColor=default;align=center;verticalAlign=middle;fontFamily=Times New Roman;fontSize=12;fontColor=default;fillColor=default;container=0;" parent="G_mk2p8V2u7blhUMgMDu-89" vertex="1">
          <mxGeometry x="32" y="480" width="100" height="20" as="geometry" />
        </mxCell>
        <mxCell id="G_mk2p8V2u7blhUMgMDu-1" value="GSM/LTE" style="rounded=1;whiteSpace=wrap;html=1;pointerEvents=0;strokeColor=default;align=center;verticalAlign=middle;fontFamily=Times New Roman;fontSize=12;fontColor=default;fillColor=default;container=0;" vertex="1" parent="G_mk2p8V2u7blhUMgMDu-89">
          <mxGeometry x="32" y="390" width="100" height="20" as="geometry" />
        </mxCell>
        <mxCell id="G_mk2p8V2u7blhUMgMDu-96" value="V2X" style="group;labelPosition=center;verticalLabelPosition=bottom;align=center;verticalAlign=top;" vertex="1" connectable="0" parent="1">
          <mxGeometry x="200" y="640" width="100" height="40" as="geometry" />
        </mxCell>
        <mxCell id="G_mk2p8V2u7blhUMgMDu-84" value="" style="rounded=1;whiteSpace=wrap;html=1;container=0;" vertex="1" parent="G_mk2p8V2u7blhUMgMDu-96">
          <mxGeometry width="100" height="40" as="geometry" />
        </mxCell>
        <mxCell id="G_mk2p8V2u7blhUMgMDu-82" value="" style="shape=image;html=1;verticalAlign=top;verticalLabelPosition=bottom;labelBackgroundColor=#ffffff;imageAspect=0;aspect=fixed;image=https://cdn0.iconfinder.com/data/icons/iconsweets2/40/light_signal.png;container=0;" vertex="1" parent="G_mk2p8V2u7blhUMgMDu-96">
          <mxGeometry x="60" width="40" height="40" as="geometry" />
        </mxCell>
        <mxCell id="G_mk2p8V2u7blhUMgMDu-83" value="" style="shape=mxgraph.signs.transportation.car_3;html=1;pointerEvents=1;fillColor=#000000;strokeColor=none;verticalLabelPosition=bottom;verticalAlign=top;align=center;container=0;" vertex="1" parent="G_mk2p8V2u7blhUMgMDu-96">
          <mxGeometry x="11" y="10.600000000000023" width="49" height="18.81" as="geometry" />
        </mxCell>
        <mxCell id="G_mk2p8V2u7blhUMgMDu-100" style="edgeStyle=orthogonalEdgeStyle;rounded=0;orthogonalLoop=1;jettySize=auto;html=1;exitX=0.5;exitY=1;exitDx=0;exitDy=0;entryX=0.5;entryY=0;entryDx=0;entryDy=0;endArrow=none;endFill=0;dashed=1;dashPattern=1 1;" edge="1" parent="1" source="V4z6lY2kIrRPjXeKWpMC-113" target="G_mk2p8V2u7blhUMgMDu-84">
          <mxGeometry relative="1" as="geometry">
            <Array as="points">
              <mxPoint x="107" y="610" />
              <mxPoint x="250" y="610" />
            </Array>
          </mxGeometry>
        </mxCell>
      </root>
    </mxGraphModel>
  </diagram>
</mxfile>
